<svg width="31" height="37" viewBox="0 0 31 37" fill="none" xmlns="http://www.w3.org/2000/svg">
<g clip-path="url(#clip0_577_2410)">
<path d="M24.4434 24.139C23.9926 24.2721 23.3306 24.2871 22.621 24.1841C21.8593 24.0737 21.0824 23.8409 20.3188 23.4978C21.6805 23.2996 22.7369 23.3607 23.6404 23.6808C23.8545 23.7567 24.2061 23.9594 24.4434 24.139ZM16.846 22.89C16.7906 22.905 16.736 22.9193 16.6817 22.9344C16.3153 23.0341 15.9588 23.1314 15.6153 23.218L15.1521 23.3354C14.2202 23.5712 13.2675 23.8121 12.3265 24.0989C12.6841 23.2366 13.0163 22.3646 13.3417 21.5122C13.5825 20.8811 13.8285 20.2365 14.0829 19.6002C14.2119 19.8133 14.3466 20.0265 14.4867 20.2403C15.1251 21.2127 15.9277 22.1117 16.846 22.89ZM14.4757 13.1652C14.5361 14.2293 14.3065 15.253 13.9697 16.235C13.5549 15.0207 13.3615 13.6797 13.8802 12.5971C14.0132 12.3196 14.1222 12.1712 14.1928 12.0938C14.302 12.2624 14.4455 12.6394 14.4757 13.1652ZM9.61091 26.645C9.37782 27.062 9.13989 27.4523 8.89603 27.8209C8.30754 28.7078 7.34509 29.6574 6.85066 29.6574C6.802 29.6574 6.74312 29.6496 6.65709 29.5587C6.60171 29.5007 6.59284 29.459 6.59552 29.4022C6.61219 29.0762 7.04422 28.4955 7.67008 27.957C8.23814 27.4685 8.88021 27.0342 9.61091 26.645ZM26.0178 24.1851C25.9422 23.099 24.1138 22.4022 24.0958 22.3957C23.389 22.1451 22.6212 22.0234 21.7485 22.0234C20.8144 22.0234 19.8072 22.1586 18.5138 22.4608C17.3629 21.6449 16.3687 20.6235 15.6259 19.4928C15.2979 18.9932 15.003 18.4945 14.746 18.0074C15.3735 16.507 15.9386 14.8937 15.8359 13.0868C15.7531 11.638 15.0998 10.6648 14.2113 10.6648C13.6019 10.6648 13.0771 11.1162 12.6504 12.0077C11.8892 13.5963 12.0893 15.629 13.2448 18.0545C12.8286 19.032 12.442 20.0453 12.0677 21.0263C11.6021 22.2461 11.1223 23.5045 10.5815 24.7017C9.06504 25.3017 7.8192 26.0294 6.78092 26.9228C6.10075 27.507 5.28076 28.4001 5.23396 29.3324C5.21111 29.7715 5.36166 30.1741 5.66761 30.4968C5.99264 30.8393 6.401 31.0197 6.85 31.0202C8.33295 31.0202 9.76023 28.9827 10.031 28.5741C10.5759 27.7527 11.0859 26.8365 11.5857 25.7797C12.8445 25.3247 14.1859 24.9852 15.4861 24.657L15.9517 24.5387C16.3017 24.4497 16.6655 24.3513 17.0387 24.2492C17.4336 24.1424 17.8398 24.0317 18.2528 23.9265C19.5878 24.7756 21.0235 25.3294 22.4237 25.5326C23.603 25.7042 24.6504 25.6046 25.3594 25.235C25.9974 24.9028 26.0326 24.39 26.0178 24.1851ZM28.8898 33.5246C28.8898 35.5137 27.1366 35.6364 26.7829 35.6403H4.16395C2.18202 35.6403 2.06268 33.8752 2.0589 33.5246L2.05863 3.47469C2.05863 1.48361 3.81501 1.3629 4.16368 1.3589H19.4432L19.4514 1.36697V7.32966C19.4514 8.52631 20.1748 10.7919 22.9146 10.7919H28.8387L28.8896 10.8427L28.8898 33.5246ZM27.4854 9.43278H22.9156C20.9342 9.43278 20.8144 7.67721 20.8117 7.32986V2.73159L27.4854 9.43278ZM30.2488 33.5246V10.282L20.8117 0.805695V0.761605H20.7665L20.0086 0H4.16399C2.96578 0 0.699951 0.726436 0.699951 3.47533V33.5252C0.699951 34.727 1.42419 37 4.16399 37H26.785C27.983 36.9997 30.2488 36.2732 30.2488 33.5246Z" fill="#EB5757"/>
</g>
<defs>
<clipPath id="clip0_577_2410">
<rect width="31" height="37" fill="white"/>
</clipPath>
</defs>
</svg>
