<svg width="27" height="27" viewBox="0 0 27 27" fill="none" xmlns="http://www.w3.org/2000/svg">
<path d="M13.5001 13.8653C12.7306 13.8661 11.9782 13.6387 11.338 13.2118C10.6978 12.7849 10.1985 12.1777 9.9035 11.4671C9.60845 10.7564 9.53082 9.97418 9.68043 9.21937C9.83004 8.46457 10.2002 7.7711 10.744 7.2267C11.2878 6.68229 11.9809 6.31141 12.7355 6.16099C13.4901 6.01056 14.2724 6.08734 14.9834 6.38162C15.6944 6.6759 16.3022 7.17445 16.7298 7.81419C17.1573 8.45394 17.3856 9.20614 17.3856 9.97562C17.3845 11.0062 16.9749 11.9942 16.2466 12.7233C15.5183 13.4524 14.5306 13.8631 13.5001 13.8653ZM13.5001 7.35578C12.9808 7.35495 12.4728 7.50824 12.0407 7.79626C11.6085 8.08427 11.2715 8.49405 11.0724 8.97371C10.8733 9.45336 10.8209 9.98132 10.922 10.4907C11.0232 11.0001 11.2732 11.4681 11.6404 11.8353C12.0076 12.2026 12.4756 12.4526 12.985 12.5537C13.4944 12.6548 14.0224 12.6025 14.502 12.4033C14.9817 12.2042 15.3915 11.8672 15.6795 11.4351C15.9675 11.0029 16.1208 10.495 16.12 9.97562C16.12 9.2808 15.8439 8.61443 15.3526 8.12312C14.8613 7.6318 14.1949 7.35578 13.5001 7.35578Z" fill="black"/>
<path d="M13.5 23.8977C11.1713 23.8955 8.91055 23.1127 7.07909 21.6744C7.01068 21.6201 6.95406 21.5525 6.91271 21.4756C6.87136 21.3987 6.84615 21.3142 6.83862 21.2272C6.83862 21.1597 6.83862 21.0964 6.83862 21.0289C6.83862 20.1536 7.01103 19.2868 7.34601 18.4781C7.68099 17.6694 8.17198 16.9346 8.79094 16.3156C9.4099 15.6966 10.1447 15.2057 10.9534 14.8707C11.7621 14.5357 12.6289 14.3633 13.5042 14.3633C14.3796 14.3633 15.2464 14.5357 16.0551 14.8707C16.8638 15.2057 17.5986 15.6966 18.2176 16.3156C18.8365 16.9346 19.3275 17.6694 19.6625 18.4781C19.9975 19.2868 20.1699 20.1536 20.1699 21.0289C20.1699 21.0964 20.1699 21.1597 20.1699 21.2272C20.1623 21.3142 20.1371 21.3987 20.0958 21.4756C20.0544 21.5525 19.9978 21.6201 19.9294 21.6744C18.0957 23.1145 15.8316 23.8974 13.5 23.8977ZM8.10425 20.8644C9.66901 22.0125 11.5592 22.6316 13.5 22.6316C15.4408 22.6316 17.331 22.0125 18.8958 20.8644C18.8407 19.4702 18.2481 18.1516 17.2422 17.1847C16.2363 16.2178 14.8952 15.6778 13.5 15.6778C12.1048 15.6778 10.7637 16.2178 9.75787 17.1847C8.75199 18.1516 8.15939 19.4702 8.10425 20.8644Z" fill="black"/>
<path d="M13.5001 23.8961C11.0407 23.8974 8.66043 23.0269 6.78203 21.4394C4.90362 19.8519 3.64867 17.65 3.24003 15.2247C2.83139 12.7995 3.29552 10.308 4.55 8.19253C5.80447 6.07712 7.76809 4.47477 10.0921 3.67007C12.4162 2.86536 14.9502 2.91037 17.2442 3.79712C19.5381 4.68386 21.4436 6.35494 22.6222 8.51358C23.8007 10.6722 24.176 13.1787 23.6815 15.5879C23.187 17.997 21.8546 20.153 19.921 21.6728C18.0896 23.1111 15.8288 23.8939 13.5001 23.8961ZM13.5001 4.37172C11.6023 4.37181 9.75178 4.96359 8.20609 6.06469C6.6604 7.16578 5.49647 8.72141 4.87632 10.515C4.25618 12.3086 4.21067 14.2509 4.74614 16.0716C5.28162 17.8923 6.37142 19.5007 7.86385 20.673C9.2103 21.7297 10.8267 22.3866 12.5285 22.5687C14.2304 22.7509 15.9492 22.4509 17.4888 21.7031C19.0283 20.9553 20.3267 19.7898 21.2357 18.3395C22.1446 16.8893 22.6276 15.2127 22.6295 13.5011C22.6261 11.0809 21.6632 8.76071 19.9518 7.04935C18.2405 5.33798 15.9203 4.37507 13.5001 4.37172Z" fill="black"/>
</svg>
