<svg width="44" height="44" viewBox="0 0 44 44" fill="none" xmlns="http://www.w3.org/2000/svg">
<g clip-path="url(#clip0_590_585)">
<path d="M22 22.7548C20.3933 22.7565 18.8222 22.2817 17.4855 21.3903C16.1488 20.499 15.1064 19.2312 14.4904 17.7473C13.8743 16.2635 13.7122 14.6302 14.0246 13.0542C14.337 11.4782 15.1098 10.0303 16.2453 8.89358C17.3807 7.75688 18.8278 6.98251 20.4035 6.66842C21.9791 6.35434 23.6126 6.51465 25.0971 7.12909C26.5816 7.74353 27.8505 8.78448 28.7433 10.1203C29.6361 11.456 30.1127 13.0266 30.1127 14.6332C30.1104 16.785 29.2552 18.848 27.7345 20.3703C26.2138 21.8927 24.1517 22.7501 22 22.7548ZM22 9.1631C20.9156 9.16136 19.8551 9.48144 18.9527 10.0828C18.0504 10.6842 17.3467 11.5398 16.931 12.5413C16.5152 13.5428 16.4059 14.6451 16.6171 15.7088C16.8282 16.7724 17.3502 17.7495 18.117 18.5162C18.8837 19.283 19.8608 19.805 20.9244 20.0161C21.9881 20.2273 23.0904 20.118 24.0919 19.7022C25.0934 19.2865 25.949 18.5828 26.5504 17.6805C27.1518 16.7781 27.4718 15.7176 27.4701 14.6332C27.4701 13.1825 26.8938 11.7911 25.8679 10.7653C24.8421 9.73942 23.4507 9.1631 22 9.1631Z" fill="black"/>
<path d="M22 43.7043C17.1377 43.6997 12.4174 42.0653 8.59334 39.0622C8.45049 38.9489 8.33228 38.8077 8.24594 38.6471C8.15961 38.4866 8.10697 38.3101 8.09125 38.1285C8.09125 37.9875 8.09125 37.8554 8.09125 37.7145C8.09125 35.8868 8.45124 34.077 9.15066 32.3884C9.85008 30.6999 10.8752 29.1656 12.1676 27.8732C13.46 26.5809 14.9942 25.5557 16.6828 24.8563C18.3714 24.1569 20.1811 23.7969 22.0088 23.7969C23.8365 23.7969 25.6463 24.1569 27.3349 24.8563C29.0234 25.5557 30.5577 26.5809 31.85 27.8732C33.1424 29.1656 34.1676 30.6999 34.867 32.3884C35.5664 34.077 35.9264 35.8868 35.9264 37.7145C35.9264 37.8554 35.9264 37.9875 35.9264 38.1285C35.9107 38.3101 35.858 38.4866 35.7717 38.6471C35.6854 38.8077 35.5672 38.9489 35.4243 39.0622C31.5956 42.069 26.8683 43.7037 22 43.7043ZM10.7338 37.3709C14.001 39.7682 17.9477 41.0608 22 41.0608C26.0524 41.0608 29.999 39.7682 33.2662 37.3709C33.1511 34.46 31.9137 31.7067 29.8135 29.6879C27.7133 27.6691 24.9132 26.5415 22 26.5415C19.0869 26.5415 16.2867 27.6691 14.1865 29.6879C12.0863 31.7067 10.849 34.46 10.7338 37.3709Z" fill="black"/>
<path d="M22 43.7037C16.8649 43.7064 11.895 41.889 7.97293 38.5742C4.0509 35.2595 1.43059 30.662 0.577372 25.5982C-0.275848 20.5345 0.693241 15.3322 3.31253 10.9153C5.93183 6.49835 10.0318 3.15271 14.8843 1.47251C19.7368 -0.207687 25.0277 -0.113695 29.8175 1.73779C34.6072 3.58928 38.5858 7.07843 41.0465 11.5856C43.5073 16.0927 44.291 21.3262 43.2585 26.3564C42.2259 31.3867 39.444 35.8882 35.4067 39.0616C31.5827 42.0647 26.8623 43.6991 22 43.7037ZM22 2.93754C18.0375 2.93772 14.1737 4.17334 10.9463 6.47239C7.71898 8.77145 5.28874 12.0195 3.99389 15.7645C2.69905 19.5095 2.60404 23.565 3.72208 27.3665C4.84013 31.1679 7.1156 34.5263 10.2317 36.9739C13.0431 39.1803 16.418 40.5518 19.9714 40.9322C23.5248 41.3125 27.1136 40.6862 30.3282 39.1249C33.5428 37.5635 36.2537 35.1299 38.1516 32.1018C40.0495 29.0737 41.0579 25.573 41.0618 21.9993C41.0548 16.946 39.0443 12.1016 35.471 8.52833C31.8978 4.95506 27.0534 2.94453 22 2.93754Z" fill="black"/>
</g>
<defs>
<clipPath id="clip0_590_585">
<rect width="44" height="44" fill="white"/>
</clipPath>
</defs>
</svg>
