<svg width="22" height="22" viewBox="0 0 22 22" fill="none" xmlns="http://www.w3.org/2000/svg">
<g clip-path="url(#clip0_577_2701)">
<path d="M3.78125 18.5625H5.84375C6.03384 18.5625 6.1875 18.4088 6.1875 18.2188V16.5C6.1875 16.3099 6.03384 16.1562 5.84375 16.1562H3.78125C3.59116 16.1562 3.4375 16.3099 3.4375 16.5V18.2188C3.4375 18.4088 3.59116 18.5625 3.78125 18.5625ZM4.125 16.8438H5.5V17.875H4.125V16.8438Z" fill="#231F20"/>
<path d="M7.90625 18.5625H9.96875C10.1588 18.5625 10.3125 18.4088 10.3125 18.2188V16.5C10.3125 16.3099 10.1588 16.1562 9.96875 16.1562H7.90625C7.71616 16.1562 7.5625 16.3099 7.5625 16.5V18.2188C7.5625 18.4088 7.71616 18.5625 7.90625 18.5625ZM8.25 16.8438H9.625V17.875H8.25V16.8438Z" fill="#231F20"/>
<path d="M12.0312 18.5625H14.0938C14.2838 18.5625 14.4375 18.4088 14.4375 18.2188V16.5C14.4375 16.3099 14.2838 16.1562 14.0938 16.1562H12.0312C11.8412 16.1562 11.6875 16.3099 11.6875 16.5V18.2188C11.6875 18.4088 11.8412 18.5625 12.0312 18.5625ZM12.375 16.8438H13.75V17.875H12.375V16.8438Z" fill="#231F20"/>
<path d="M3.78125 14.7812H5.84375C6.03384 14.7812 6.1875 14.6276 6.1875 14.4375V12.7188C6.1875 12.5287 6.03384 12.375 5.84375 12.375H3.78125C3.59116 12.375 3.4375 12.5287 3.4375 12.7188V14.4375C3.4375 14.6276 3.59116 14.7812 3.78125 14.7812ZM4.125 13.0625H5.5V14.0938H4.125V13.0625Z" fill="#231F20"/>
<path d="M7.90625 14.7812H9.96875C10.1588 14.7812 10.3125 14.6276 10.3125 14.4375V12.7188C10.3125 12.5287 10.1588 12.375 9.96875 12.375H7.90625C7.71616 12.375 7.5625 12.5287 7.5625 12.7188V14.4375C7.5625 14.6276 7.71616 14.7812 7.90625 14.7812ZM8.25 13.0625H9.625V14.0938H8.25V13.0625Z" fill="#231F20"/>
<path d="M12.0312 14.7812H14.0938C14.2838 14.7812 14.4375 14.6276 14.4375 14.4375V12.7188C14.4375 12.5287 14.2838 12.375 14.0938 12.375H12.0312C11.8412 12.375 11.6875 12.5287 11.6875 12.7188V14.4375C11.6875 14.6276 11.8412 14.7812 12.0312 14.7812ZM12.375 13.0625H13.75V14.0938H12.375V13.0625Z" fill="#231F20"/>
<path d="M16.1562 14.7812H18.2188C18.4088 14.7812 18.5625 14.6276 18.5625 14.4375V12.7188C18.5625 12.5287 18.4088 12.375 18.2188 12.375H16.1562C15.9662 12.375 15.8125 12.5287 15.8125 12.7188V14.4375C15.8125 14.6276 15.9662 14.7812 16.1562 14.7812ZM16.5 13.0625H17.875V14.0938H16.5V13.0625Z" fill="#231F20"/>
<path d="M3.78125 11H5.84375C6.03384 11 6.1875 10.8463 6.1875 10.6562V8.9375C6.1875 8.74741 6.03384 8.59375 5.84375 8.59375H3.78125C3.59116 8.59375 3.4375 8.74741 3.4375 8.9375V10.6562C3.4375 10.8463 3.59116 11 3.78125 11ZM4.125 9.28125H5.5V10.3125H4.125V9.28125Z" fill="#231F20"/>
<path d="M7.90625 11H9.96875C10.1588 11 10.3125 10.8463 10.3125 10.6562V8.9375C10.3125 8.74741 10.1588 8.59375 9.96875 8.59375H7.90625C7.71616 8.59375 7.5625 8.74741 7.5625 8.9375V10.6562C7.5625 10.8463 7.71616 11 7.90625 11ZM8.25 9.28125H9.625V10.3125H8.25V9.28125Z" fill="#231F20"/>
<path d="M12.0312 11H14.0938C14.2838 11 14.4375 10.8463 14.4375 10.6562V8.9375C14.4375 8.74741 14.2838 8.59375 14.0938 8.59375H12.0312C11.8412 8.59375 11.6875 8.74741 11.6875 8.9375V10.6562C11.6875 10.8463 11.8412 11 12.0312 11ZM12.375 9.28125H13.75V10.3125H12.375V9.28125Z" fill="#231F20"/>
<path d="M16.1562 11H18.2188C18.4088 11 18.5625 10.8463 18.5625 10.6562V8.9375C18.5625 8.74741 18.4088 8.59375 18.2188 8.59375H16.1562C15.9662 8.59375 15.8125 8.74741 15.8125 8.9375V10.6562C15.8125 10.8463 15.9662 11 16.1562 11ZM16.5 9.28125H17.875V10.3125H16.5V9.28125Z" fill="#231F20"/>
<path d="M20.625 1.375H18.2188V1.03125C18.2188 0.461656 17.7571 0 17.1875 0C16.6179 0 16.1562 0.461656 16.1562 1.03125V1.375H5.84375V1.03125C5.84375 0.461656 5.38209 0 4.8125 0C4.24291 0 3.78125 0.461656 3.78125 1.03125V1.375H1.375C0.614969 1.375 0 1.98997 0 2.75V20.625C0 21.385 0.614969 22 1.375 22H20.625C21.385 22 22 21.385 22 20.625V2.75C22 1.98997 21.385 1.375 20.625 1.375ZM16.8438 1.03125C16.8438 0.841156 16.9974 0.6875 17.1875 0.6875C17.3776 0.6875 17.5312 0.841156 17.5312 1.03125V2.0625V3.4375C17.5312 3.62759 17.3776 3.78125 17.1875 3.78125C16.9974 3.78125 16.8438 3.62759 16.8438 3.4375V2.0625V1.03125ZM4.46875 1.03125C4.46875 0.841156 4.62241 0.6875 4.8125 0.6875C5.00259 0.6875 5.15625 0.841156 5.15625 1.03125V2.0625V3.4375C5.15625 3.62759 5.00259 3.78125 4.8125 3.78125C4.62241 3.78125 4.46875 3.62759 4.46875 3.4375V2.0625V1.03125ZM21.3125 20.625C21.3125 21.0045 21.0045 21.3125 20.625 21.3125H1.375C0.9955 21.3125 0.6875 21.0045 0.6875 20.625V5.84375H21.3125V20.625ZM21.3125 5.15625H0.6875V2.75C0.6875 2.3705 0.9955 2.0625 1.375 2.0625H3.78125V3.4375C3.78125 4.00709 4.24291 4.46875 4.8125 4.46875C5.38209 4.46875 5.84375 4.00709 5.84375 3.4375V2.0625H16.1562V3.4375C16.1562 4.00709 16.6179 4.46875 17.1875 4.46875C17.7571 4.46875 18.2188 4.00709 18.2188 3.4375V2.0625H20.625C21.0045 2.0625 21.3125 2.3705 21.3125 2.75V5.15625Z" fill="#231F20"/>
</g>
<defs>
<clipPath id="clip0_577_2701">
<rect width="22" height="22" fill="white"/>
</clipPath>
</defs>
</svg>
