<svg width="60" height="40" viewBox="0 0 60 40" fill="none" xmlns="http://www.w3.org/2000/svg">
<g clip-path="url(#clip0_577_5258)">
<path d="M58.79 0.726C58.566 0.584 58.294 0.5 58 0.5C57.756 0.5 57.524 0.56 57.32 0.664L57.328 0.66L43.452 7.596C43.24 4.744 40.878 2.51 37.994 2.5H6.00195C2.96595 2.504 0.505953 4.964 0.501953 8V32.002C0.505953 35.038 2.96595 37.498 6.00195 37.502H37.994C40.88 37.492 43.24 35.258 43.452 32.426L43.454 32.408L57.332 39.344C57.526 39.444 57.754 39.504 57.998 39.504H58.004H58.008C58.834 39.504 59.504 38.834 59.504 38.008V38.004V2.004C59.504 1.468 59.222 0.997999 58.8 0.731999L58.794 0.728L58.79 0.726ZM40.492 32.002C40.49 33.382 39.372 34.5 37.992 34.502H5.99995C4.61995 34.5 3.50195 33.382 3.49995 32.002V8C3.50195 6.62 4.61995 5.502 5.99995 5.5H37.992C39.372 5.502 40.49 6.62 40.492 8V32.002ZM56.5 35.576L43.492 29.076V10.93L56.5 4.428V35.576Z" fill="#656565"/>
</g>
<defs>
<clipPath id="clip0_577_5258">
<rect width="60" height="40" fill="white"/>
</clipPath>
</defs>
</svg>
