<svg width="82" height="82" viewBox="0 0 82 82" fill="none" xmlns="http://www.w3.org/2000/svg">
<path d="M40.9999 42.0989C38.6629 42.1014 36.3777 41.4108 34.4334 40.1143C32.489 38.8178 30.9729 36.9737 30.0769 34.8153C29.1808 32.657 28.945 30.2814 29.3994 27.989C29.8537 25.6967 30.9778 23.5906 32.6294 21.9372C34.281 20.2838 36.3859 19.1574 38.6777 18.7006C40.9696 18.2437 43.3455 18.4769 45.5048 19.3707C47.6641 20.2644 49.5098 21.7785 50.8084 23.7214C52.1071 25.6644 52.8002 27.9488 52.8002 30.2858C52.7968 33.4156 51.5529 36.4164 49.341 38.6307C47.1291 40.8449 44.1297 42.0921 40.9999 42.0989ZM40.9999 22.3292C39.4226 22.3267 37.88 22.7922 36.5675 23.667C35.255 24.5417 34.2316 25.7862 33.6268 27.2429C33.022 28.6997 32.8631 30.3031 33.1702 31.8502C33.4773 33.3973 34.2366 34.8185 35.3519 35.9338C36.4672 37.0491 37.8884 37.8084 39.4355 38.1154C40.9826 38.4225 42.586 38.2636 44.0427 37.6589C45.4995 37.0541 46.744 36.0307 47.6187 34.7181C48.4934 33.4056 48.959 31.8631 48.9565 30.2858C48.9565 28.1756 48.1182 26.1518 46.626 24.6596C45.1339 23.1675 43.1101 22.3292 40.9999 22.3292Z" fill="black"/>
<path d="M41 72.5695C33.9276 72.5629 27.0616 70.1855 21.4994 65.8173C21.2916 65.6526 21.1196 65.4472 20.9941 65.2136C20.8685 64.9801 20.7919 64.7234 20.769 64.4592C20.769 64.2542 20.769 64.062 20.769 63.857C20.769 61.1986 21.2927 58.5662 22.31 56.1101C23.3274 53.654 24.8185 51.4223 26.6983 49.5425C28.5781 47.6627 30.8098 46.1716 33.2658 45.1542C35.7219 44.1369 38.3543 43.6133 41.0128 43.6133C43.6712 43.6133 46.3037 44.1369 48.7597 45.1542C51.2158 46.1716 53.4475 47.6627 55.3273 49.5425C57.2071 51.4223 58.6982 53.654 59.7156 56.1101C60.7329 58.5662 61.2565 61.1986 61.2565 63.857C61.2565 64.062 61.2565 64.2542 61.2565 64.4592C61.2337 64.7234 61.1571 64.9801 61.0315 65.2136C60.906 65.4472 60.734 65.6526 60.5262 65.8173C54.9571 70.1909 48.0812 72.5686 41 72.5695ZM24.6128 63.3573C29.365 66.8443 35.1057 68.7245 41 68.7245C46.8943 68.7245 52.6349 66.8443 57.3872 63.3573C57.2197 59.1233 55.4199 55.1184 52.3651 52.182C49.3102 49.2456 45.2373 47.6055 41 47.6055C36.7626 47.6055 32.6898 49.2456 29.6349 52.182C26.58 55.1184 24.7803 59.1233 24.6128 63.3573Z" fill="black"/>
<path d="M41 72.568C33.5307 72.5718 26.3018 69.9283 20.597 65.1069C14.8922 60.2855 11.0809 53.5982 9.83982 46.2327C8.59878 38.8672 10.0084 31.3003 13.8182 24.8757C17.6281 18.4511 23.5917 13.5847 30.6499 11.1408C37.708 8.69684 45.404 8.83356 52.3709 11.5266C59.3378 14.2197 65.1248 19.2948 68.7041 25.8507C72.2834 32.4066 73.4233 40.0188 71.9214 47.3356C70.4196 54.6523 66.3731 61.2 60.5007 65.8158C54.9385 70.1839 48.0724 72.5613 41 72.568ZM41 13.2717C35.2364 13.272 29.6163 15.0693 24.9219 18.4133C20.2276 21.7574 16.6927 26.4819 14.8093 31.9291C12.9259 37.3763 12.7877 43.2752 14.4139 48.8047C16.0402 54.3341 19.35 59.219 23.8825 62.7792C27.9717 65.9884 32.8807 67.9834 38.0494 68.5366C43.218 69.0898 48.438 68.1789 53.1138 65.9078C57.7895 63.6367 61.7327 60.097 64.4933 55.6925C67.2538 51.2879 68.7206 46.1961 68.7263 40.998C68.7161 33.6476 65.7917 26.6013 60.5942 21.4038C55.3968 16.2063 48.3504 13.2819 41 13.2717Z" fill="black"/>
</svg>
