<svg width="43" height="35" viewBox="0 0 43 35" fill="none" xmlns="http://www.w3.org/2000/svg">
<path d="M19.0374 31.9887C28.6473 30.6458 36.0877 23.1947 36.0877 14.074C36.0891 12.7687 35.9353 11.4674 35.6292 10.1953C39.7347 12.5323 42.4561 16.6098 42.4561 21.2492C42.4531 23.7959 41.628 26.2796 40.0934 28.3616C40.2208 30.2867 40.934 31.9745 42.2374 33.427C42.3561 33.558 42.4312 33.7198 42.4533 33.8917C42.4754 34.0636 42.4434 34.2379 42.3614 34.3924C42.2794 34.5469 42.1512 34.6746 41.993 34.7592C41.8348 34.8437 41.6539 34.8814 41.4732 34.8674C38.5714 34.6422 36.1981 34.0032 34.3534 32.9503C32.2399 33.9003 29.9321 34.3902 27.5965 34.3845C24.5605 34.3976 21.5862 33.5651 19.0374 31.9887Z" fill="black"/>
<path d="M11.9408 27.7048C13.2144 27.9929 14.5476 28.1471 15.921 28.1471C24.7136 28.1471 31.842 21.8462 31.842 14.0725C31.842 6.30291 24.7136 0 15.921 0C7.12836 0 0 6.30088 0 14.0745C0 18.0222 1.83835 21.5906 4.80178 24.1466C4.55079 25.8683 3.77988 27.4827 2.58345 28.7922C2.45605 28.9323 2.3753 29.1057 2.35154 29.2899C2.32778 29.4742 2.36209 29.6611 2.45007 29.8266C2.53805 29.9922 2.67571 30.1289 2.84544 30.2192C3.01517 30.3096 3.20925 30.3495 3.40285 30.3339C7.01161 30.054 9.85829 29.1776 11.9408 27.7048Z" fill="black"/>
</svg>
