<svg width="166" height="200" viewBox="0 0 166 200" fill="none" xmlns="http://www.w3.org/2000/svg">
<g clip-path="url(#clip0_577_2247)">
<path d="M164.248 49.5562L115.887 1.1957C115.121 0.430077 114.083 0 113.001 0H20.393C9.45469 0 0.556274 8.8992 0.556274 19.8375V180.163C0.556274 191.101 9.45508 200 20.3933 200H145.607C156.545 200 165.444 191.101 165.444 180.163V52.4425C165.443 51.3601 165.013 50.3218 164.248 49.5562ZM117.084 13.9371L151.508 48.3612H128.758C125.639 48.3612 122.707 47.1468 120.502 44.9421C118.298 42.7378 117.083 39.8062 117.084 36.6878V13.9371ZM157.28 180.163C157.28 186.6 152.043 191.836 145.607 191.836H20.393C13.9559 191.836 8.71915 186.6 8.71915 180.163V19.8375C8.71954 13.4004 13.9562 8.16327 20.393 8.16327H108.921V36.687C108.92 41.9859 110.983 46.9675 114.729 50.714C118.476 54.4608 123.458 56.5241 128.757 56.5241H157.28L157.28 180.163Z" fill="black"/>
<path d="M90.4577 137.301H88.6303C86.3764 137.301 84.5487 139.128 84.5487 141.382C84.5487 143.637 86.3764 145.464 88.6303 145.464H90.4577C92.7116 145.464 94.5393 143.637 94.5393 141.382C94.5393 139.128 92.7116 137.301 90.4577 137.301Z" fill="black"/>
<path d="M75.4256 137.301H35.7804C33.5265 137.301 31.6987 139.128 31.6987 141.382C31.6987 143.637 33.5265 145.464 35.7804 145.464H75.4256C77.6795 145.464 79.5072 143.637 79.5072 141.382C79.5072 139.128 77.6799 137.301 75.4256 137.301Z" fill="black"/>
<path d="M130.219 118.652H35.7809C33.527 118.652 31.6992 120.48 31.6992 122.734C31.6992 124.988 33.527 126.816 35.7809 126.816H130.219C132.473 126.816 134.301 124.988 134.301 122.734C134.301 120.48 132.473 118.652 130.219 118.652Z" fill="black"/>
<path d="M130.219 100H35.7809C33.527 100 31.6992 101.827 31.6992 104.082C31.6992 106.336 33.527 108.163 35.7809 108.163H130.219C132.473 108.163 134.301 106.336 134.301 104.082C134.301 101.827 132.473 100 130.219 100Z" fill="black"/>
<path d="M130.219 81.3477H35.7809C33.527 81.3477 31.6992 83.175 31.6992 85.4293C31.6992 87.6836 33.527 89.5109 35.7809 89.5109H130.219C132.473 89.5109 134.301 87.6836 134.301 85.4293C134.301 83.175 132.473 81.3477 130.219 81.3477Z" fill="black"/>
</g>
<defs>
<clipPath id="clip0_577_2247">
<rect width="166" height="200" fill="white"/>
</clipPath>
</defs>
</svg>
