<svg width="50" height="40" viewBox="0 0 50 40" fill="none" xmlns="http://www.w3.org/2000/svg">
<g clip-path="url(#clip0_596_852)">
<path d="M1 9.86536C1 6.8784 1 5.38494 1.58131 4.24408C2.09261 3.24054 2.90851 2.42464 3.91205 1.91334C5.05291 1.33203 6.5464 1.33203 9.53333 1.33203H18.7987C20.1032 1.33203 20.7555 1.33203 21.3693 1.47939C21.9133 1.61003 22.4336 1.82553 22.9109 2.11795C23.4491 2.44777 23.9104 2.90896 24.8328 3.83139L25.1672 4.166C26.0896 5.08843 26.5509 5.54963 27.0891 5.87944C27.5664 6.17187 28.0867 6.38736 28.6307 6.518C29.2445 6.66536 29.8968 6.66536 31.2013 6.66536H40.4667C43.4536 6.66536 44.9472 6.66536 46.088 7.24667C47.0915 7.75798 47.9075 8.57387 48.4187 9.57742C49 10.7183 49 12.2118 49 15.1987V30.132C49 33.119 49 34.6126 48.4187 35.7534C47.9075 36.7568 47.0915 37.5728 46.088 38.084C44.9472 38.6654 43.4536 38.6654 40.4667 38.6654H9.53333C6.54637 38.6654 5.05291 38.6654 3.91205 38.084C2.90851 37.5728 2.09261 36.7568 1.58131 35.7534C1 34.6126 1 33.119 1 30.132V9.86536Z" stroke="black" stroke-width="2" stroke-linecap="round" stroke-linejoin="round"/>
</g>
<defs>
<clipPath id="clip0_596_852">
<rect width="50" height="40" fill="white"/>
</clipPath>
</defs>
</svg>
