<svg width="34" height="34" viewBox="0 0 34 34" fill="none" xmlns="http://www.w3.org/2000/svg">
<g clip-path="url(#clip0_587_565)">
<path d="M32.4106 0.0859375H1.58964C0.761455 0.0859375 0.0877075 0.75961 0.0877075 1.58762V32.4088C0.0877075 33.2368 0.761455 33.9106 1.58964 33.9106H32.4106C33.2386 33.9106 33.9123 33.2368 33.9123 32.4088V1.58762C33.9123 0.75961 33.2386 0.0859375 32.4106 0.0859375ZM32.4106 32.7228H1.58964C1.41639 32.7228 1.27546 32.582 1.27546 32.4088V28.6838L12.3844 17.5748L23.1774 28.3679C23.2934 28.4838 23.4454 28.5418 23.5974 28.5418C23.7493 28.5418 23.9014 28.4838 24.0173 28.3679C24.2492 28.1359 24.2492 27.7599 24.0173 27.5279L12.8044 16.315C12.6884 16.199 12.5364 16.141 12.3844 16.1411C12.2324 16.141 12.0805 16.199 11.9645 16.315L1.27546 27.004V1.58762C1.27546 1.41454 1.41639 1.27371 1.58964 1.27371H32.4106C32.5837 1.27371 32.7245 1.41454 32.7245 1.58762V26.7613L22.2782 16.315C22.2347 16.2715 22.1862 16.2362 22.1345 16.209C21.9105 16.0912 21.6267 16.1266 21.4383 16.315L19.1053 18.6482C18.8734 18.8801 18.8734 19.2561 19.1053 19.4881C19.2213 19.604 19.3733 19.6619 19.5252 19.6619C19.6771 19.6619 19.8292 19.604 19.9452 19.488L21.8582 17.5748L32.6512 28.3679C32.6742 28.3908 32.699 28.411 32.7245 28.4294V32.4088C32.7246 32.582 32.5837 32.7228 32.4106 32.7228Z" fill="black"/>
<path d="M20.5679 10.5796C20.5679 8.73508 19.0673 7.23438 17.2227 7.23438C15.3782 7.23438 13.8776 8.73506 13.8776 10.5796C13.8776 12.4241 15.3782 13.9247 17.2227 13.9247C19.0672 13.9247 20.5679 12.4241 20.5679 10.5796ZM17.2227 12.737C16.0331 12.737 15.0654 11.7692 15.0654 10.5796C15.0654 9.38994 16.0332 8.42215 17.2227 8.42215C18.4123 8.42215 19.3801 9.38992 19.3801 10.5796C19.3801 11.7692 18.4123 12.737 17.2227 12.737Z" fill="black"/>
</g>
<defs>
<clipPath id="clip0_587_565">
<rect width="34" height="34" fill="white"/>
</clipPath>
</defs>
</svg>
