<svg width="19" height="19" viewBox="0 0 19 19" fill="none" xmlns="http://www.w3.org/2000/svg">
<path d="M9.49998 9.75562C8.95849 9.75621 8.42899 9.59618 7.97848 9.29577C7.52796 8.99536 7.17666 8.56808 6.96904 8.06797C6.76141 7.56787 6.70678 7.01742 6.81206 6.48626C6.91734 5.9551 7.1778 5.4671 7.56048 5.08401C7.94317 4.70091 8.43088 4.43992 8.96192 4.33406C9.49297 4.22821 10.0435 4.28224 10.5438 4.48932C11.0441 4.69641 11.4718 5.04724 11.7727 5.49743C12.0736 5.94762 12.2342 6.47695 12.2342 7.01844C12.2334 7.74363 11.9452 8.43894 11.4327 8.95201C10.9202 9.46507 10.2252 9.75405 9.49998 9.75562ZM9.49998 5.17484C9.13452 5.17426 8.77709 5.28213 8.47297 5.48481C8.16885 5.68748 7.93171 5.97585 7.79158 6.31338C7.65146 6.65092 7.61464 7.02245 7.68579 7.38092C7.75695 7.7394 7.93288 8.0687 8.1913 8.32712C8.44973 8.58555 8.77902 8.76147 9.1375 8.83263C9.49597 8.90378 9.8675 8.86697 10.205 8.72684C10.5426 8.58671 10.8309 8.34957 11.0336 8.04545C11.2363 7.74133 11.3442 7.3839 11.3436 7.01844C11.3436 6.52949 11.1493 6.06056 10.8036 5.71482C10.4579 5.36908 9.98894 5.17484 9.49998 5.17484Z" fill="black"/>
<path d="M9.5 16.8148C7.86128 16.8133 6.27037 16.2624 4.98157 15.2503C4.93342 15.2121 4.89358 15.1645 4.86448 15.1104C4.83539 15.0563 4.81764 14.9968 4.81235 14.9356C4.81235 14.8881 4.81235 14.8436 4.81235 14.7961C4.81235 14.1801 4.93367 13.5702 5.1694 13.0011C5.40513 12.432 5.75064 11.9149 6.1862 11.4793C6.62176 11.0438 7.13886 10.6982 7.70795 10.4625C8.27704 10.2268 8.88699 10.1055 9.50297 10.1055C10.119 10.1055 10.7289 10.2268 11.298 10.4625C11.8671 10.6982 12.3842 11.0438 12.8197 11.4793C13.2553 11.9149 13.6008 12.432 13.8365 13.0011C14.0723 13.5702 14.1936 14.1801 14.1936 14.7961C14.1936 14.8436 14.1936 14.8881 14.1936 14.9356C14.1883 14.9968 14.1706 15.0563 14.1415 15.1104C14.1124 15.1645 14.0725 15.2121 14.0244 15.2503C12.734 16.2637 11.1408 16.8146 9.5 16.8148ZM5.70297 14.6803C6.8041 15.4883 8.13425 15.9239 9.5 15.9239C10.8658 15.9239 12.1959 15.4883 13.297 14.6803C13.2582 13.6993 12.8412 12.7713 12.1334 12.0909C11.4255 11.4105 10.4818 11.0305 9.5 11.0305C8.51818 11.0305 7.57447 11.4105 6.86663 12.0909C6.15879 12.7713 5.74177 13.6993 5.70297 14.6803Z" fill="black"/>
<path d="M9.50001 16.8156C7.76931 16.8165 6.09431 16.204 4.77247 15.0868C3.45064 13.9697 2.56752 12.4202 2.27996 10.7136C1.9924 9.00692 2.31901 7.2536 3.20179 5.76497C4.08456 4.27635 5.46637 3.14877 7.1018 2.58249C8.73723 2.01622 10.5204 2.0479 12.1347 2.6719C13.749 3.29591 15.0899 4.47185 15.9192 5.99089C16.7486 7.50993 17.0127 9.27375 16.6647 10.9691C16.3167 12.6644 15.3791 14.1816 14.0184 15.2511C12.7296 16.2632 11.1387 16.8141 9.50001 16.8156ZM9.50001 3.07625C8.16453 3.07631 6.8623 3.49275 5.77459 4.2676C4.68688 5.04244 3.86782 6.13714 3.43142 7.3993C2.99502 8.66147 2.963 10.0283 3.33982 11.3095C3.71663 12.5907 4.48353 13.7226 5.53376 14.5475C6.48126 15.2911 7.61871 15.7534 8.81631 15.8815C10.0139 16.0097 11.2234 15.7987 12.3068 15.2724C13.3903 14.7462 14.3039 13.926 14.9436 12.9054C15.5832 11.8849 15.9231 10.7051 15.9244 9.50062C15.922 7.7975 15.2444 6.1648 14.0401 4.96051C12.8358 3.75621 11.2031 3.07861 9.50001 3.07625Z" fill="black"/>
</svg>
