<svg width="18" height="18" viewBox="0 0 18 18" fill="none" xmlns="http://www.w3.org/2000/svg">
<g clip-path="url(#clip0_577_2693)">
<path d="M18 16C18 16.5304 17.7893 17.0391 17.4142 17.4142C17.0391 17.7893 16.5304 18 16 18H2C1.46957 18 0.960859 17.7893 0.585786 17.4142C0.210714 17.0391 0 16.5304 0 16V2C0 1.46957 0.210714 0.960859 0.585786 0.585786C0.960859 0.210714 1.46957 0 2 0L16 0C16.5304 0 17.0391 0.210714 17.4142 0.585786C17.7893 0.960859 18 1.46957 18 2V16Z" fill="#657955"/>
<path d="M14.64 3.18155C14.3618 3.00135 14.0235 2.93889 13.6994 3.00788C13.3752 3.07688 13.0917 3.27169 12.911 3.54955L7.468 11.9391L4.9535 9.61405C4.83345 9.50003 4.69195 9.41099 4.5372 9.35211C4.38246 9.29323 4.21756 9.26568 4.05208 9.27105C3.8866 9.27642 3.72384 9.31462 3.57324 9.38342C3.42264 9.45221 3.28722 9.55024 3.17482 9.67181C3.06242 9.79338 2.9753 9.93607 2.9185 10.0916C2.8617 10.2471 2.83637 10.4124 2.84397 10.5778C2.85157 10.7432 2.89195 10.9054 2.96277 11.055C3.03358 11.2047 3.13343 11.3388 3.2565 11.4496L6.861 14.7826C7.101 15.0051 7.406 15.1151 7.709 15.1151C8.0455 15.1151 8.476 14.9741 8.7585 14.5456C8.9245 14.2926 15.0085 4.91055 15.0085 4.91055C15.0978 4.77283 15.1592 4.61886 15.189 4.45743C15.2188 4.29601 15.2166 4.13028 15.1824 3.96973C15.1481 3.80918 15.0826 3.65693 14.9896 3.5217C14.8965 3.38646 14.7777 3.27088 14.64 3.18155Z" fill="white"/>
</g>
<defs>
<clipPath id="clip0_577_2693">
<rect width="18" height="18" fill="white"/>
</clipPath>
</defs>
</svg>
