<svg width="45" height="45" viewBox="0 0 45 45" fill="none" xmlns="http://www.w3.org/2000/svg">
<path d="M38.2072 31.28C37.1204 29.4096 35.825 25.88 35.825 19.6875V18.44C35.825 11.0404 29.8931 4.9763 22.6016 4.92223C22.5676 4.92205 22.5338 4.92188 22.4998 4.92188C18.9615 4.92671 15.57 6.33691 13.0713 8.84226C10.5727 11.3476 9.17163 14.7429 9.17632 18.2812V19.6875C9.17632 25.8798 7.88028 29.4092 6.79297 31.2796C6.6058 31.5998 6.50637 31.9637 6.50472 32.3346C6.50307 32.7055 6.59926 33.0703 6.78357 33.3921C6.96789 33.714 7.23382 33.9816 7.55455 34.1678C7.87528 34.3541 8.23945 34.4525 8.61035 34.4531H16.1719V35.1563C16.1719 36.8346 16.8386 38.4442 18.0253 39.6309C19.2121 40.8177 20.8217 41.4844 22.5 41.4844C24.1783 41.4844 25.7879 40.8177 26.9746 39.6309C28.1614 38.4442 28.8281 36.8346 28.8281 35.1563V34.4531H36.3896C36.7605 34.4525 37.1246 34.3541 37.4453 34.1679C37.766 33.9816 38.0319 33.7141 38.2162 33.3923C38.4006 33.0705 38.4968 32.7058 38.4952 32.3349C38.4936 31.9641 38.3943 31.6002 38.2072 31.28ZM27.4219 35.1563C27.4219 36.4616 26.9033 37.7135 25.9803 38.6365C25.0572 39.5596 23.8053 40.0781 22.5 40.0781C21.1946 40.0781 19.9427 39.5596 19.0197 38.6365C18.0967 37.7135 17.5781 36.4616 17.5781 35.1563V34.4531H27.4219V35.1563ZM36.9937 32.6974C36.9336 32.8044 36.8458 32.8933 36.7395 32.9548C36.6332 33.0163 36.5124 33.0481 36.3896 33.0469H8.61035C8.48755 33.0481 8.36668 33.0163 8.2604 32.9548C8.15412 32.8933 8.06634 32.8043 8.00627 32.6972C7.94286 32.5894 7.90962 32.4665 7.91005 32.3415C7.91047 32.2164 7.94454 32.0937 8.00868 31.9864C9.18284 29.9664 10.5826 26.1931 10.5826 19.6875V18.2813C10.5779 15.1158 11.8308 12.0781 14.0658 9.83651C16.3008 7.59486 19.3347 6.33287 22.5002 6.32814C22.5304 6.32814 22.5611 6.32832 22.5913 6.32849C29.1129 6.3769 34.4188 11.8102 34.4188 18.4401V19.6875C34.4188 26.1931 35.8176 29.9666 36.9911 31.9865C37.0553 32.0939 37.0894 32.2165 37.0898 32.3416C37.0903 32.4667 37.0571 32.5896 36.9937 32.6974Z" fill="black"/>
</svg>
