<svg width="34" height="34" viewBox="0 0 34 34" fill="none" xmlns="http://www.w3.org/2000/svg">
<g clip-path="url(#clip0_577_4843)">
<path d="M32.4108 0.0859375H1.58982C0.761638 0.0859375 0.0878906 0.75961 0.0878906 1.58762V32.4088C0.0878906 33.2368 0.761638 33.9106 1.58982 33.9106H32.4108C33.2388 33.9106 33.9125 33.2368 33.9125 32.4088V1.58762C33.9125 0.75961 33.2388 0.0859375 32.4108 0.0859375ZM32.4108 32.7228H1.58982C1.41657 32.7228 1.27564 32.582 1.27564 32.4088V28.6838L12.3846 17.5748L23.1776 28.3679C23.2936 28.4838 23.4455 28.5418 23.5976 28.5418C23.7495 28.5418 23.9015 28.4838 24.0175 28.3679C24.2494 28.1359 24.2494 27.7599 24.0175 27.5279L12.8046 16.315C12.6886 16.199 12.5366 16.141 12.3846 16.1411C12.2326 16.141 12.0807 16.199 11.9647 16.315L1.27564 27.004V1.58762C1.27564 1.41454 1.41657 1.27371 1.58982 1.27371H32.4108C32.5839 1.27371 32.7247 1.41454 32.7247 1.58762V26.7613L22.2784 16.315C22.2349 16.2715 22.1864 16.2362 22.1346 16.209C21.9106 16.0912 21.6269 16.1266 21.4385 16.315L19.1054 18.6482C18.8736 18.8801 18.8736 19.2561 19.1055 19.4881C19.2214 19.604 19.3735 19.6619 19.5254 19.6619C19.6773 19.6619 19.8294 19.604 19.9454 19.488L21.8584 17.5748L32.6514 28.3679C32.6744 28.3908 32.6992 28.411 32.7247 28.4294V32.4088C32.7247 32.582 32.5839 32.7228 32.4108 32.7228Z" fill="white"/>
<path d="M20.5682 10.5796C20.5682 8.73508 19.0676 7.23438 17.2231 7.23438C15.3785 7.23438 13.8779 8.73506 13.8779 10.5796C13.8779 12.4241 15.3785 13.9247 17.2231 13.9247C19.0676 13.9247 20.5682 12.4241 20.5682 10.5796ZM17.2231 12.737C16.0335 12.737 15.0657 11.7692 15.0657 10.5796C15.0657 9.38994 16.0335 8.42215 17.2231 8.42215C18.4126 8.42215 19.3804 9.38992 19.3804 10.5796C19.3804 11.7692 18.4126 12.737 17.2231 12.737Z" fill="white"/>
</g>
<defs>
<clipPath id="clip0_577_4843">
<rect width="34" height="34" fill="white"/>
</clipPath>
</defs>
</svg>
