<svg width="37" height="37" viewBox="0 0 37 37" fill="none" xmlns="http://www.w3.org/2000/svg">
<path d="M18.4594 1.00001C20.1876 0.996819 21.8779 1.50615 23.3166 2.46361C24.7553 3.42107 25.8777 4.78364 26.542 6.37903C27.2063 7.97442 27.3826 9.73097 27.0486 11.4266C26.7146 13.1221 25.8853 14.6806 24.6656 15.9049C23.4459 17.1291 21.8905 17.9642 20.1962 18.3045C18.5018 18.6448 16.7446 18.475 15.1468 17.8167C13.5489 17.1583 12.1822 16.0409 11.2194 14.6058C10.2566 13.1706 9.74101 11.4822 9.73779 9.75408V9.73781C9.73779 7.4232 10.6562 5.20316 12.2913 3.56497C13.9265 1.92678 16.1448 1.0043 18.4594 1.00001Z" stroke="white" stroke-width="1.33333" stroke-linecap="round" stroke-linejoin="round"/>
<path d="M18.4593 21.7109C28.2222 21.7109 35.9186 28.212 35.9186 31.45V35.9973H1V31.3687C1 28.1307 8.6964 21.7109 18.4593 21.7109Z" stroke="white" stroke-width="1.33333" stroke-linecap="round" stroke-linejoin="round"/>
</svg>
