<svg width="34" height="34" viewBox="0 0 34 34" fill="none" xmlns="http://www.w3.org/2000/svg">
<g clip-path="url(#clip0_577_4854)">
<path d="M2.04535 34C1.74578 33.9994 1.44997 33.927 1.17875 33.7879C0.825126 33.6105 0.525806 33.3254 0.316722 32.9666C0.107637 32.6077 -0.00232504 32.1905 3.7277e-05 31.7651V2.23143C0.000638427 1.63982 0.215759 1.07263 0.598203 0.654297C0.980646 0.235965 1.49918 0.000657561 2.04003 0H31.96C32.5009 0.000657561 33.0194 0.235965 33.4018 0.654297C33.7843 1.07263 33.9994 1.63982 34 2.23143V26.0333C33.9994 26.6249 33.7843 27.1921 33.4018 27.6104C33.0194 28.0288 32.5009 28.2641 31.96 28.2647H9.26486C9.10478 28.2649 8.94985 28.3266 8.82724 28.4392L3.35272 33.4731C2.98757 33.8123 2.52437 33.9989 2.04535 34ZM2.04003 1.48762C1.85975 1.48783 1.6869 1.56626 1.55941 1.7057C1.43193 1.84515 1.36023 2.03422 1.36004 2.23143V31.7651C1.36004 31.9067 1.39701 32.0454 1.4666 32.1648C1.53619 32.2842 1.63551 32.3795 1.75288 32.4393C1.87025 32.4991 2.0008 32.521 2.12916 32.5024C2.25752 32.4838 2.37837 32.4255 2.47749 32.3344L7.95201 27.3005L7.95218 27.3004C8.31998 26.9627 8.7847 26.7775 9.26487 26.7771H31.96C32.1403 26.7769 32.3131 26.6985 32.4406 26.559C32.5681 26.4196 32.6398 26.2305 32.64 26.0333V2.23143C32.6398 2.03422 32.5681 1.84515 32.4406 1.7057C32.3131 1.56626 32.1403 1.48783 31.96 1.48762H2.04003Z" fill="white"/>
</g>
<defs>
<clipPath id="clip0_577_4854">
<rect width="34" height="34" fill="white"/>
</clipPath>
</defs>
</svg>
