<svg width="30" height="30" viewBox="0 0 30 30" fill="none" xmlns="http://www.w3.org/2000/svg">
<g clip-path="url(#clip0_577_4841)">
<path d="M10.9726 27.4249V23.0803C10.9725 21.9753 11.8734 21.0774 12.9896 21.07H17.0782C18.1997 21.07 19.1089 21.97 19.1089 23.0803V27.4383C19.1086 28.3766 19.865 29.1434 20.8125 29.1654H23.5382C26.2554 29.1654 28.4582 26.9847 28.4582 24.2946V11.9356C28.4437 10.8774 27.9418 9.88361 27.0953 9.23716L17.7733 1.80287C16.1402 0.508417 13.8186 0.508417 12.1855 1.80287L2.90437 9.25065C2.0547 9.89448 1.55197 10.8899 1.5415 11.9491V24.2946C1.5415 26.9847 3.74424 29.1654 6.46146 29.1654H9.1872C10.1582 29.1654 10.9453 28.3861 10.9453 27.4249" stroke="white" stroke-width="1.5" stroke-linecap="round" stroke-linejoin="round"/>
</g>
<defs>
<clipPath id="clip0_577_4841">
<rect width="30" height="30" fill="white"/>
</clipPath>
</defs>
</svg>
