<svg width="32" height="32" viewBox="0 0 32 32" fill="none" xmlns="http://www.w3.org/2000/svg">
<g clip-path="url(#clip0_591_723)">
<path d="M16 0C7.16337 0 0 7.16337 0 16C0 24.8366 7.16337 32 16 32C24.8366 32 32 24.8366 32 16C32 7.16337 24.8366 0 16 0Z" fill="#40B3E0"/>
<path d="M23.7853 9.20558L20.9275 23.614C20.9275 23.614 20.5279 24.6132 19.4288 24.1336L12.834 19.0776L10.436 17.9186L6.39929 16.5596C6.39929 16.5596 5.77979 16.3398 5.71979 15.8602C5.65992 15.3806 6.41929 15.1208 6.41929 15.1208L22.4663 8.82583C22.4663 8.82583 23.7853 8.24633 23.7853 9.20558Z" fill="white"/>
<path d="M12.3273 23.449C12.3273 23.449 12.1348 23.431 11.8949 22.6715C11.6552 21.9121 10.4362 17.9154 10.4362 17.9154L20.1283 11.7604C20.1283 11.7604 20.6879 11.4206 20.6679 11.7604C20.6679 11.7604 20.7678 11.8203 20.468 12.1C20.1683 12.3799 12.8542 18.9545 12.8542 18.9545" fill="#D2E5F1"/>
<path d="M15.3626 21.0129L12.7541 23.3911C12.7541 23.3911 12.5503 23.5459 12.3271 23.4489L12.8266 19.0312" fill="#B5CFE4"/>
</g>
<defs>
<clipPath id="clip0_591_723">
<rect width="32" height="32" fill="white"/>
</clipPath>
</defs>
</svg>
