<svg width="25" height="22" viewBox="0 0 25 22" fill="none" xmlns="http://www.w3.org/2000/svg">
<g clip-path="url(#clip0_577_2719)">
<path d="M11.8604 10.5216C11.8604 11.139 11.9673 11.7504 12.175 12.3207C12.3827 12.8911 12.6872 13.4094 13.071 13.846C13.4548 14.2825 13.9104 14.6288 14.4119 14.8651C14.9134 15.1014 15.4509 15.223 15.9937 15.223C16.5364 15.223 17.0739 15.1014 17.5754 14.8651C18.0769 14.6288 18.5325 14.2825 18.9163 13.846C19.3001 13.4094 19.6046 12.8911 19.8123 12.3207C20.02 11.7504 20.1269 11.139 20.1269 10.5216C20.1269 9.90425 20.02 9.29291 19.8123 8.72251C19.6046 8.15212 19.3001 7.63385 18.9163 7.1973C18.5325 6.76074 18.0769 6.41444 17.5754 6.17818C17.0739 5.94192 16.5364 5.82031 15.9937 5.82031C15.4509 5.82031 14.9134 5.94192 14.4119 6.17818C13.9104 6.41444 13.4548 6.76074 13.071 7.1973C12.6872 7.63385 12.3827 8.15212 12.175 8.72251C11.9673 9.29291 11.8604 9.90425 11.8604 10.5216Z" fill="#FFD000"/>
<path d="M15.9937 16.1755C13.252 16.1755 11.021 13.6379 11.021 10.5194C11.021 7.40091 13.252 4.86328 15.9937 4.86328C18.7354 4.86328 20.9664 7.40091 20.9664 10.5194C20.9664 13.6379 18.7354 16.1755 15.9937 16.1755ZM15.9937 6.77648C14.1808 6.77648 12.703 8.45371 12.703 10.5194C12.703 12.5851 14.1808 14.2623 15.9937 14.2623C17.8066 14.2623 19.2812 12.5814 19.2812 10.5158C19.2812 8.45008 17.8066 6.77648 15.9937 6.77648Z" fill="#333333"/>
<path d="M12.1764 1.31419C12.5531 1.06733 13.035 1.21254 13.252 1.64092L14.0404 3.19109C14.2574 3.61947 14.1298 4.16766 13.7531 4.41452C13.3765 4.66139 12.8946 4.51617 12.6775 4.08779L11.8892 2.53762C11.669 2.10561 11.7998 1.56106 12.1764 1.31419ZM21.9335 8.87987C22.0452 9.35908 22.4761 9.64224 22.8974 9.51155L24.4167 9.04686C24.838 8.9198 25.0869 8.4297 24.972 7.95049C24.8603 7.47129 24.4294 7.18812 24.0081 7.31881L22.4889 7.7835C22.0708 7.91056 21.8218 8.40066 21.9335 8.87987ZM21.5122 12.9059C21.4005 13.3851 21.6495 13.8752 22.0676 14.0023L23.5868 14.467C24.0081 14.5941 24.439 14.3109 24.5507 13.8353C24.6624 13.3561 24.4135 12.866 23.9954 12.7389L22.4761 12.2743C22.058 12.1472 21.6271 12.4304 21.5122 12.9059ZM17.3981 0C17.8322 0 18.1864 0.39934 18.1864 0.8967V2.68647C18.1864 3.1802 17.8354 3.58317 17.3981 3.58317C16.964 3.58317 16.6097 3.18383 16.6097 2.68647V0.8967C16.6097 0.40297 16.9608 0 17.3981 0ZM22.7314 2.5231C22.425 2.17459 21.9271 2.17459 21.6175 2.5231L20.5036 3.7901C20.1972 4.13861 20.1972 4.70495 20.5036 5.0571C20.81 5.40561 21.3079 5.40561 21.6175 5.0571L22.7314 3.7901C23.041 3.43795 23.041 2.87162 22.7314 2.5231Z" fill="#333333"/>
<path d="M4.59289 21.0209C4.52267 21.0281 4.45564 21.0354 4.38543 21.039C2.45444 21.1625 0.842621 19.2347 0.842621 17.0093C0.842621 14.7839 2.4289 12.9796 4.38543 12.9796C4.51948 12.9796 4.65353 12.9869 4.78439 13.005C4.7812 12.9215 4.7812 12.838 4.7812 12.7545C4.7812 9.66511 6.98348 7.16016 9.69963 7.16016C12.0998 7.16016 14.0978 9.11329 14.5319 11.6981C14.7521 11.6582 14.9787 11.6364 15.2085 11.6364C17.4906 11.6364 19.3418 13.742 19.3418 16.3377C19.3354 17.9968 18.5822 19.4562 17.4395 20.2912C16.7948 20.7631 16.0288 21.0644 15.2053 21.0354C15.0936 21.0318 14.9851 21.0245 14.8766 21.01C14.8415 21.0136 14.8032 21.0136 14.7681 21.0136H4.59289V21.0209Z" fill="white"/>
<path d="M4.20668 21.9988C3.17256 21.9988 2.18633 21.545 1.40116 20.6992C0.510675 19.7407 0 18.3939 0 17.0071C0 14.4186 1.74587 12.2804 3.9673 12.0444C4.28009 8.76616 6.72814 6.20312 9.69324 6.20312C12.1955 6.20312 14.3851 8.04009 15.1575 10.6794H15.2021C17.947 10.6794 20.178 13.217 20.178 16.3355C20.178 18.2705 19.3258 20.0493 17.8959 21.0949C17.0501 21.7157 16.1054 22.0242 15.1798 21.9916C15.0713 21.9879 14.966 21.9807 14.8606 21.9698C14.8287 21.9698 14.7968 21.9734 14.7649 21.9734H4.63437C4.56734 21.9807 4.50032 21.9879 4.43329 21.9916C4.35669 21.9952 4.28328 21.9988 4.20668 21.9988ZM4.38223 13.9358C2.89489 13.9358 1.68203 15.3153 1.68203 17.0071C1.68203 17.8711 2.00121 18.7097 2.55656 19.3087C3.05766 19.8497 3.69601 20.1256 4.33435 20.0784C4.38861 20.0747 4.44606 20.0711 4.50032 20.0639L4.58969 20.0566H14.9596C15.0489 20.0675 15.1383 20.0747 15.2277 20.0784C15.9682 20.1074 16.5937 19.7698 16.9799 19.483C17.9311 18.7932 18.496 17.617 18.496 16.3355C18.496 14.2734 17.0182 12.5926 15.2053 12.5926C15.0234 12.5926 14.8415 12.6107 14.6659 12.6434L13.8552 12.7959L13.702 11.8774C13.335 9.69916 11.653 8.11633 9.69643 8.11633C7.44627 8.11633 5.61742 10.1965 5.61742 12.7559C5.61742 12.8249 5.61742 12.8939 5.62061 12.9629L5.6653 14.0846L4.68544 13.9576C4.58649 13.9431 4.48755 13.9358 4.38223 13.9358Z" fill="#333333"/>
</g>
<defs>
<clipPath id="clip0_577_2719">
<rect width="25" height="22" fill="white"/>
</clipPath>
</defs>
</svg>
