<svg width="35" height="35" viewBox="0 0 35 35" fill="none" xmlns="http://www.w3.org/2000/svg">
<g clip-path="url(#clip0_746_562)">
<path d="M17.5001 0C14.4363 0.000778467 11.4265 0.789902 8.77126 2.2885C6.11607 3.7871 3.90858 5.94268 2.36941 8.53981C0.830245 11.1369 0.0133185 14.0846 0.000280614 17.0883C-0.0127573 20.0919 0.77855 23.0463 2.29512 25.6562L0.719349 31.0635C0.616485 31.4165 0.611784 31.7901 0.705736 32.1455C0.799688 32.5009 0.988872 32.8252 1.25369 33.0848C1.5185 33.3444 1.84931 33.5299 2.21183 33.6219C2.57435 33.714 2.95539 33.7094 3.31547 33.6085L8.83086 32.0637C11.1594 33.3653 13.7618 34.125 16.4372 34.2845C19.1127 34.4439 21.7897 33.9987 24.2619 32.9832C26.7341 31.9677 28.9353 30.4091 30.6958 28.4275C32.4563 26.446 33.729 24.0945 34.4158 21.5543C35.1026 19.0142 35.1851 16.3534 34.6569 13.7771C34.1287 11.2008 33.004 8.77779 31.3695 6.69508C29.735 4.61237 27.6344 2.92556 25.2297 1.76476C22.825 0.603955 20.1805 0.000179116 17.5001 0ZM17.5001 32.9412C14.6085 32.9431 11.77 32.1805 9.28339 30.7336C9.20142 30.6857 9.11033 30.6548 9.01572 30.6428C8.92111 30.6307 8.82499 30.6378 8.73327 30.6635L2.93077 32.2889C2.81074 32.3225 2.68372 32.3241 2.56288 32.2934C2.44204 32.2626 2.33178 32.2008 2.24352 32.1143C2.15526 32.0277 2.09221 31.9196 2.06091 31.8011C2.02961 31.6827 2.0312 31.5581 2.06551 31.4405L3.72322 25.7519C3.74942 25.662 3.75659 25.5677 3.74431 25.475C3.73203 25.3822 3.70054 25.2929 3.65179 25.2125C1.83837 22.2173 1.08632 18.7181 1.51277 15.2602C1.93922 11.8022 3.52024 8.57959 6.00953 6.09436C8.49882 3.60913 11.7566 2.00083 15.2754 1.51999C18.7942 1.03916 22.3764 1.71279 25.464 3.43595C28.5516 5.15911 30.9712 7.83504 32.3459 11.0469C33.7206 14.2587 33.9731 17.8262 33.0643 21.1934C32.1554 24.5607 30.1361 27.5387 27.321 29.6635C24.5058 31.7884 21.0529 32.9408 17.5001 32.9412ZM26.3395 20.3383L22.7591 18.3324C22.4352 18.1511 22.0679 18.0576 21.6949 18.0615C21.322 18.0654 20.9568 18.1665 20.6368 18.3545L18.2207 19.7758C16.758 19.0493 15.5698 17.8843 14.8288 16.4503L16.2784 14.0815C16.4701 13.7679 16.5733 13.4099 16.5772 13.0442C16.5812 12.6786 16.4858 12.3185 16.301 12.0009L14.2551 8.49063C14.088 8.20485 13.8471 7.96732 13.5565 7.802C13.2659 7.63668 12.936 7.54942 12.6 7.54902C11.1185 7.54938 9.69751 8.12512 8.64799 9.15023C7.59846 10.1753 7.00591 11.5663 7.00002 13.0188C6.99731 14.9131 7.37552 16.7893 8.11303 18.5401C8.85054 20.291 9.93289 21.8821 11.2982 23.2225C12.6634 24.563 14.2848 25.6264 16.0696 26.3519C17.8545 27.0775 19.7677 27.4509 21.6998 27.451H21.7208C23.2023 27.4452 24.6211 26.8643 25.6667 25.8353C26.7123 24.8064 27.2996 23.4132 27.3 21.9608C27.2996 21.6314 27.2106 21.308 27.042 21.0231C26.8733 20.7382 26.631 20.502 26.3395 20.3383ZM21.7189 26.0784H21.6999C19.9518 26.0784 18.2207 25.7405 16.6059 25.0841C14.9911 24.4277 13.524 23.4656 12.2888 22.2528C11.0535 21.0401 10.0743 19.6004 9.407 18.0163C8.73973 16.4322 8.39754 14.7347 8.40002 13.0208C8.40485 11.9319 8.8495 10.8892 9.63664 10.1209C10.4238 9.35267 11.4893 8.92142 12.6 8.92157C12.6892 8.92168 12.7768 8.94485 12.854 8.98873C12.9312 9.03262 12.9952 9.09568 13.0396 9.17155L15.0855 12.682C15.1471 12.7879 15.1788 12.9079 15.1775 13.0298C15.1762 13.1516 15.1418 13.2709 15.0779 13.3755L13.4348 16.0603C13.3767 16.1552 13.3429 16.2624 13.3363 16.3729C13.3296 16.4834 13.3503 16.5938 13.3966 16.6948C14.3103 18.6883 15.938 20.2841 17.9714 21.1799C18.0744 21.2253 18.187 21.2456 18.2998 21.2391C18.4125 21.2325 18.5219 21.1993 18.6187 21.1423L21.357 19.5315C21.4636 19.4689 21.5854 19.4351 21.7097 19.4338C21.834 19.4325 21.9565 19.4636 22.0645 19.524L25.6451 21.53C25.7225 21.5735 25.7868 21.6362 25.8315 21.7119C25.8763 21.7875 25.8999 21.8734 25.9 21.9608C25.9001 23.0497 25.4603 24.0943 24.6767 24.866C23.8931 25.6377 22.8295 26.0737 21.7189 26.0784Z" fill="black"/>
</g>
<defs>
<clipPath id="clip0_746_562">
<rect width="35" height="35" fill="white"/>
</clipPath>
</defs>
</svg>
